<mxfile host="Electron" modified="2023-07-30T07:09:33.691Z" agent="Mozilla/5.0 (X11; Linux x86_64) AppleWebKit/537.36 (KHTML, like Gecko) draw.io/21.3.7 Chrome/112.0.5615.204 Electron/24.5.0 Safari/537.36" etag="8fDUfbTM0nyg0ozxAB7u" version="21.3.7" type="device">
  <diagram name="Страница 1" id="iQbyq5fuf7B05cyNNyje">
    <mxGraphModel dx="880" dy="544" grid="1" gridSize="10" guides="1" tooltips="1" connect="1" arrows="1" fold="1" page="1" pageScale="1" pageWidth="827" pageHeight="1169" math="0" shadow="0">
      <root>
        <mxCell id="0" />
        <mxCell id="1" parent="0" />
        <mxCell id="1rSZLXA4fahLaEwm1x6w-1" value="&lt;font color=&quot;#86c351&quot; style=&quot;font-size: 16px;&quot;&gt;&lt;b&gt;text-file.txt&lt;/b&gt;&lt;/font&gt;" style="text;html=1;strokeColor=none;fillColor=none;align=center;verticalAlign=middle;whiteSpace=wrap;rounded=0;" parent="1" vertex="1">
          <mxGeometry x="40" y="40" width="90" height="30" as="geometry" />
        </mxCell>
        <mxCell id="1rSZLXA4fahLaEwm1x6w-2" value="&lt;font color=&quot;#0a7bff&quot; style=&quot;font-size: 16px;&quot;&gt;&lt;b&gt;soft-link&lt;/b&gt;&lt;/font&gt;" style="text;html=1;strokeColor=none;fillColor=none;align=center;verticalAlign=middle;whiteSpace=wrap;rounded=0;" parent="1" vertex="1">
          <mxGeometry x="200" y="40" width="80" height="30" as="geometry" />
        </mxCell>
        <mxCell id="1rSZLXA4fahLaEwm1x6w-4" value="" style="shape=flexArrow;endArrow=classic;html=1;rounded=0;exitX=0;exitY=0.5;exitDx=0;exitDy=0;entryX=1;entryY=0.5;entryDx=0;entryDy=0;" parent="1" source="1rSZLXA4fahLaEwm1x6w-2" target="1rSZLXA4fahLaEwm1x6w-1" edge="1">
          <mxGeometry width="50" height="50" relative="1" as="geometry">
            <mxPoint x="390" y="300" as="sourcePoint" />
            <mxPoint x="440" y="250" as="targetPoint" />
          </mxGeometry>
        </mxCell>
        <mxCell id="1rSZLXA4fahLaEwm1x6w-5" value="" style="shape=flexArrow;endArrow=classic;html=1;rounded=0;exitX=0.5;exitY=1;exitDx=0;exitDy=0;entryX=0;entryY=0;entryDx=0;entryDy=0;" parent="1" source="1rSZLXA4fahLaEwm1x6w-1" target="IA_Fa1k9FNctdVC1F1Mr-2" edge="1">
          <mxGeometry width="50" height="50" relative="1" as="geometry">
            <mxPoint x="390" y="300" as="sourcePoint" />
            <mxPoint x="160" y="120" as="targetPoint" />
          </mxGeometry>
        </mxCell>
        <mxCell id="IA_Fa1k9FNctdVC1F1Mr-2" value="&lt;font color=&quot;#000000&quot; style=&quot;font-size: 16px;&quot;&gt;&lt;b&gt;Данные&lt;/b&gt;&lt;/font&gt;" style="rounded=1;whiteSpace=wrap;html=1;fillColor=#dedede;" vertex="1" parent="1">
          <mxGeometry x="120" y="120" width="120" height="60" as="geometry" />
        </mxCell>
      </root>
    </mxGraphModel>
  </diagram>
</mxfile>
